<?xml version="1.0" encoding="utf-8"?>
<svg xml:space="preserve" viewBox="0 0 100 100" y="0" x="0" xmlns="http://www.w3.org/2000/svg" id="Layer_1" version="1.1" style="height: 100%; width: 100%; background-color: rgb(220, 220, 220); shape-rendering: auto;" width="200px" height="200px"><g style="transform-origin: 50% 50%; transform: rotate(0deg) scale(0.8, 0.8);" class="ldl-scale"><g class="ldl-ani"><g class="ldl-layer"><g class="ldl-ani" style="transform: scale(0.9099999999999999); transform-origin: 50px 50px; animation: 1.1111111111111112s linear -0.8333333333333334s infinite normal forwards running breath-2642e0a0-7711-4289-a12b-f7420669551c;"><path fill="#323232" d="M50 25.93c.53 0 1.061.213 1.451.638L84.612 52.41h5.916c1.713 0 2.608-2.036 1.451-3.298L51.451 15.235A1.961 1.961 0 0 0 50 14.597c-.53 0-1.061.213-1.451.638L8.021 49.112c-1.157 1.262-.262 3.298 1.451 3.298h5.916l33.161-25.842c.39-.425.921-.638 1.451-.638z" id="XMLID_189_" style="fill: rgb(0, 0, 0);"></path></g></g><g class="ldl-layer"><g class="ldl-ani" style="transform: scale(0.9099999999999999); transform-origin: 50px 50px; animation: 1.1111111111111112s linear -1.1111111111111112s infinite normal forwards running breath-2642e0a0-7711-4289-a12b-f7420669551c;"><path fill="#cccccb" d="M50 58.923c.53 0 1.061.213 1.451.638l33.161 25.842h5.916c1.713 0 2.608-2.036 1.451-3.298L51.451 48.228A1.961 1.961 0 0 0 50 47.59c-.53 0-1.061.213-1.451.638L8.021 82.104c-1.157 1.262-.262 3.298 1.451 3.298h5.916L48.549 59.56c.39-.424.921-.637 1.451-.637z" id="XMLID_188_" style="fill: rgb(0, 0, 0);"></path></g></g><metadata xmlns:d="https://loading.io/stock/">
<d:name>up</d:name>
<d:tags>north,upload,top,direction,way,dart,chevron,up,arrow</d:tags>
<d:license>by</d:license>
<d:slug>iei9vt</d:slug>
</metadata></g></g><style id="breath-2642e0a0-7711-4289-a12b-f7420669551c" data-anikit="">@keyframes breath-2642e0a0-7711-4289-a12b-f7420669551c
{
  0% {
    animation-timing-function: cubic-bezier(0.9647,0.2413,-0.0705,0.7911);
    transform: scale(0.9099999999999999);
  }
  51% {
    animation-timing-function: cubic-bezier(0.9226,0.2631,-0.0308,0.7628);
    transform: scale(1.02994);
  }
  100% {
    transform: scale(0.9099999999999999);
  }
}</style><!-- [ldio] generated by https://loading.io/ --></svg>